<svg id="Calque_1" data-name="Calque 1" xmlns="http://www.w3.org/2000/svg" viewBox="0 0 19.89 19.89"><title>download</title><polygon points="13.16 8.74 9.95 12.52 6.74 8.74 8.72 8.74 8.72 4.16 11.18 4.16 11.18 8.74 13.16 8.74" style="fill:#1d1d1b"/><polygon points="14.13 12.52 14.13 15.39 5.8 15.39 5.8 12.52 6.41 12.52 6.41 13.9 13.53 13.9 13.53 12.52 14.13 12.52" style="fill:#1d1d1b"/><path d="M10,19.95A9.95,9.95,0,1,1,20,10,10,10,0,0,1,10,19.95ZM10,1.06A8.95,8.95,0,1,0,19,10,9,9,0,0,0,10,1.06Z" transform="translate(-0.07 -0.06)" style="fill:#1d1d1b"/></svg>