<svg id="Mode_Isolation" data-name="Mode Isolation" xmlns="http://www.w3.org/2000/svg" xmlns:xlink="http://www.w3.org/1999/xlink" viewBox="0 0 99.68 97.67"><defs><clipPath id="clip-path" transform="translate(-27.11 -176.78)"><circle cx="75.96" cy="226.2" r="38.35"/></clipPath></defs><title>uk-flag</title><g style="clip-path:url(#clip-path)"><polygon style="stroke:none;" points="93.85 44.05 93.85 54.26 54.31 54.26 54.31 93.8 44.1 93.8 44.1 54.26 4.56 54.26 4.56 44.05 44.1 44.05 44.1 4.51 54.31 4.51 54.31 44.05 93.85 44.05"/><polygon style="stroke:none;" points="76.24 40.54 95.17 30.61 95.17 40.54 76.24 40.54"/><polygon style="stroke:none;" points="57.52 36.79 93.86 16.44 57.52 0 57.52 36.79"/><polygon style="stroke:none;" points="59.52 40.54 66.03 40.54 99.08 21.82 97.17 19.05 59.52 40.54"/><polygon style="stroke:none;" points="22.84 57.13 3.91 67.06 3.91 57.13 22.84 57.13"/><polygon style="stroke:none;" points="41.56 60.87 5.22 81.22 41.56 97.67 41.56 60.87"/><polygon style="stroke:none;" points="39.56 57.13 33.05 57.13 0 75.85 1.91 78.62 39.56 57.13"/><polygon style="stroke:none;" points="57.52 60.87 89.92 79.27 57.52 94.59 57.52 60.87"/><polygon style="stroke:none;" points="61.52 57.13 67.54 57.13 97.33 74.24 95.38 76.68 61.52 57.13"/><polygon style="stroke:none;" points="76.24 57.13 99.68 70.33 99.2 57.13 76.24 57.13"/><polygon style="stroke:none;" points="41.56 36.79 13.37 21.16 41.56 5.5 41.56 36.79"/><polygon style="stroke:none;" points="37.8 40.54 31.61 40.54 4.75 25.07 6.66 22.47 37.8 40.54"/><polygon style="stroke:none;" points="22.84 40.54 6.23 32.24 6.23 40.54 22.84 40.54"/></g><circle cx="48.85" cy="49.42" r="43.53" style="fill:none;stroke-miterlimit:10"/></svg>